<svg  viewBox="0 0 35 35" fill="none" xmlns="http://www.w3.org/2000/svg">
<path d="M17.5 2.88611C9.21791 2.88611 2.51001 9.60275 2.51001 17.8761C2.51001 26.1495 9.22665 32.8661 17.5 32.8661C25.7734 32.8661 32.49 26.1495 32.49 17.8761C32.49 9.60275 25.7821 2.88611 17.5 2.88611ZM26.2281 22.555C26.2281 24.7939 24.4091 26.613 22.1702 26.613H12.8298C10.591 26.613 8.77188 24.7939 8.77188 22.555V13.2147C8.77188 10.9758 10.591 9.15672 12.8298 9.15672H22.1702C24.4091 9.15672 26.2281 10.9758 26.2281 13.2147V22.555Z" />
<path d="M22.1702 10.4686H12.8299C11.3169 10.4686 10.0837 11.7018 10.0837 13.2148V22.5551C10.0837 24.0681 11.3169 25.3012 12.8299 25.3012H22.1702C23.6832 25.3012 24.9163 24.0681 24.9163 22.5551V13.2148C24.9163 11.7018 23.6832 10.4686 22.1702 10.4686ZM17.5 22.7212C14.8326 22.7212 12.6637 20.5523 12.6637 17.8849C12.6637 15.2175 14.8326 13.0486 17.5 13.0486C20.1674 13.0486 22.3364 15.2175 22.3364 17.8849C22.3364 20.5523 20.1674 22.7212 17.5 22.7212ZM22.5025 14.3517C21.6892 14.3517 21.0333 13.6958 21.0333 12.8824C21.0333 12.0691 21.6892 11.4132 22.5025 11.4132C23.3159 11.4132 23.9718 12.0691 23.9718 12.8824C23.9718 13.687 23.3071 14.3517 22.5025 14.3517Z"/>
<path d="M17.5 21.4182C19.4514 21.4182 21.0333 19.8363 21.0333 17.8849C21.0333 15.9336 19.4514 14.3517 17.5 14.3517C15.5487 14.3517 13.9668 15.9336 13.9668 17.8849C13.9668 19.8363 15.5487 21.4182 17.5 21.4182Z"/>
</svg>
