<svg viewBox="0 0 18 18" fill="none" xmlns="http://www.w3.org/2000/svg"><path d="M16.875 9.281h-1.688V7.312a.563.563 0 00-.562-.562H5.344V5.344a3.656 3.656 0 117.312 0h1.125a4.781 4.781 0 10-9.562 0V6.75h-.844a.563.563 0 00-.563.563V9.28H1.125a.562.562 0 00-.563.563v4.5a.563.563 0 00.563.562h1.688v1.969a.562.562 0 00.562.563h11.25a.562.562 0 00.563-.563v-1.969h1.687a.562.562 0 00.563-.562v-4.5a.563.563 0 00-.563-.563zM3.937 7.875h10.126v1.406H3.937V7.875zm10.126 8.438H3.937v-1.407h10.126v1.406zm2.25-2.532H1.688v-3.375h14.624v3.375z" fill="#fff"/><path d="M3.938 11.531H2.812v1.125h1.126v-1.125zm2.25 0H5.063v1.125h1.125v-1.125zm2.25 0H7.312v1.125h1.125v-1.125zm2.25 0H9.562v1.125h1.126v-1.125zm2.25 0h-1.126v1.125h1.126v-1.125zm2.25 0h-1.126v1.125h1.126v-1.125z" fill="#fff"/></svg>