<svg viewBox="0 0 21 21" fill="none" xmlns="http://www.w3.org/2000/svg"><path d="M3.544 17.719l1.214-4.89 7.448-7.448 3.675 3.675-7.448 7.449-4.89 1.214zm2.067-4.43l-.788 3.15 3.15-.787 6.628-6.629-2.362-2.362-6.628 6.628z" fill="#fff"/><path d="M7.645 16.21a3.581 3.581 0 00-2.592-2.593l.23-.919a4.42 4.42 0 013.248 3.249l-.886.262z" fill="#fff"/><path d="M7.547 14.405l-.656-.69 6.53-6.53.656.657-6.53 6.563zM4.2 17.063l1.444-.361a1.508 1.508 0 00-1.083-1.083L4.2 17.063zm12.042-8.368L12.567 5.02l1.477-1.476.23.033a3.969 3.969 0 013.412 3.412l.033.23-1.477 1.476zm-2.33-3.675l2.363 2.363.46-.46a3.107 3.107 0 00-2.363-2.362l-.46.46z" fill="#fff"/></svg>