<svg viewBox="0 0 15 15" xmlns="http://www.w3.org/2000/svg"><circle cx="7.5" cy="7.5" r="7"/><path d="M8.481 10.302l-.107.44c-.322.126-.58.222-.771.287a1.991 1.991 0 01-.67.103c-.39 0-.694-.095-.912-.283a.934.934 0 01-.323-.728c0-.114.008-.23.025-.347A4.15 4.15 0 015.8 9.37l.4-1.426c.036-.136.065-.265.088-.385a1.66 1.66 0 00.04-.337c0-.183-.038-.31-.113-.381-.075-.072-.218-.108-.43-.108a1.14 1.14 0 00-.322.05c-.108.032-.2.063-.278.092l.107-.44c.264-.107.516-.198.757-.273.24-.078.469-.117.683-.117.388 0 .686.094.894.283a.922.922 0 01.317.728c0 .062-.008.17-.024.327-.013.156-.04.3-.078.43l-.4 1.42a3.946 3.946 0 00-.088.391c-.027.147-.04.257-.04.332 0 .189.043.318.127.386.085.068.232.102.44.102.098 0 .208-.016.332-.048a2 2 0 00.268-.093zm.103-5.962a.837.837 0 01-.283.635.954.954 0 01-.674.258.971.971 0 01-.679-.258.837.837 0 01-.283-.635c0-.248.094-.46.283-.635a.961.961 0 01.679-.264c.264 0 .488.088.674.264a.837.837 0 01.283.635z"/></svg>