<svg viewBox="0 0 33 33" fill="none" xmlns="http://www.w3.org/2000/svg"><path d="M16.5.344C7.577.344.344 7.577.344 16.5c0 8.923 7.233 16.156 16.156 16.156 8.923 0 16.156-7.233 16.156-16.156C32.656 7.577 25.423.344 16.5.344zM21.798 17.4c-.649-.01-1.242.008-1.996-.024-.123-.006-2.087.023-2.082.06.143.873-.062 1.801-.05 2.684.008.515.159 5.173.09 6.891l-3.894.036c-.016-1.463.056-2.968-.008-4.897-.013-.397-.026-4.572-.072-4.791l-2.525.017s-.01-1.541-.01-2.062v-1.536s2.008-.11 2.584-.161c0 0 .059-1.954.139-2.588.092-.723.1-1.453.525-2.093.778-1.171 1.546-2.203 2.977-2.515.54-.118 4.11-.82 4.241-.242l-.08 3.475c-.971 0-2.134-.099-3.124.637-.551.41-.703.751-.759 1.426-.033.393-.04 1.98-.04 1.98.522.075 1.296.042 1.858 0 .635-.047 2.265.122 2.265.122 0 1.05-.043 3.477-.04 3.581z"/></svg>