<svg viewBox="0 0 35 35" fill="none" xmlns="http://www.w3.org/2000/svg"><path d="M17.5 2.886c-8.282 0-14.99 6.717-14.99 14.99s6.717 14.99 14.99 14.99 14.99-6.716 14.99-14.99c0-8.273-6.708-14.99-14.99-14.99zm8.728 19.669a4.06 4.06 0 01-4.058 4.058h-9.34a4.06 4.06 0 01-4.058-4.058v-9.34a4.06 4.06 0 014.058-4.058h9.34a4.06 4.06 0 014.058 4.058v9.34z"/><path d="M22.17 10.469h-9.34a2.75 2.75 0 00-2.746 2.746v9.34a2.75 2.75 0 002.746 2.746h9.34a2.75 2.75 0 002.746-2.746v-9.34a2.75 2.75 0 00-2.746-2.746zM17.5 22.72a4.84 4.84 0 01-4.836-4.836 4.84 4.84 0 014.836-4.836 4.841 4.841 0 014.836 4.836A4.841 4.841 0 0117.5 22.72zm5.003-8.37c-.814 0-1.47-.655-1.47-1.469 0-.813.656-1.469 1.47-1.469.813 0 1.469.656 1.469 1.47 0 .804-.665 1.469-1.47 1.469z"/><path d="M17.5 21.418a3.533 3.533 0 100-7.066 3.533 3.533 0 000 7.066z"/></svg>