<svg viewBox="0 0 33 33" fill="none" xmlns="http://www.w3.org/2000/svg"><path d="M16.5.344C7.577.344.344 7.577.344 16.5c0 8.923 7.233 16.156 16.156 16.156 8.923 0 16.156-7.233 16.156-16.156C32.656 7.577 25.423.344 16.5.344zm8.683 22.287c-.69.431-3.491.56-4.17.067-.372-.27-.712-.608-1.035-.93-.226-.226-.483-.335-.677-.58-.159-.199-.267-.435-.434-.632-.282-.331-.716-.613-1.059-.209-.516.61.082 1.804-.607 2.26-.231.152-.464.196-.753.174l-.64.03c-.375.006-.97.01-1.397-.067-.477-.086-.871-.346-1.302-.538-.819-.363-1.598-.857-2.191-1.542-1.615-1.866-3.783-4.431-4.626-6.776-.173-.482-.63-1.437-.197-1.85.59-.429 3.487-.55 3.938.113.184.27.3.664.43.97.161.38.249.739.501 1.076.224.299.389.6.562.927.194.368.377.72.614 1.06.16.23.584.688.852.722.653.083.613-1.505.564-1.893a7.504 7.504 0 01-.046-1.15c.01-.323.04-.779-.152-1.043-.312-.43-1.008-.108-1.062-.687.115-.164.09-.31.858-.562a3.184 3.184 0 011.392-.16c.812.065 1.673-.155 2.457.108.75.252.633 1.317.608 1.954-.034.871.003 1.72 0 2.604 0 .403-.017.794.474.761.46-.03.507-.417.726-.736.305-.446.586-.897.896-1.34.42-.6.546-1.274.94-1.888.142-.22.263-.687.48-.86.165-.133.477-.064.677-.064h.473c.362 0 .732-.002 1.104.01.537.019 1.137-.104 1.669-.029 2.294.324-2.884 5.228-2.614 6.104.186.605 1.367 1.28 1.793 1.776.566.66 2.309 1.971.954 2.82z"/></svg>